<svg width="101" height="81" viewBox="0 0 101 81" fill="none" xmlns="http://www.w3.org/2000/svg">
<path id="Vector" d="M100.092 23.6607C100.092 7.41219 88.9986 0 78.6968 0H50.9972L36.4835 58.0513H59.9174L59.2601 62.3724H32.124L47.5901 0.0161838H20.1455L0.0917969 81H73.1837C87.3487 81 95.8128 69.5419 95.8128 58.4721C95.8128 50.0565 91.5606 44.6673 89.1327 42.2721C92.674 40.0226 100.092 34.0508 100.092 23.6769V23.6607ZM86.4634 40.7185L84.3171 41.7542L86.3024 43.1784C86.3695 43.227 93.519 48.4867 93.519 58.4398C93.519 68.3928 85.9134 78.2002 73.1837 78.2002H3.17697L21.849 2.78362H44.5049L29.0656 65.156H61.1917L62.6807 55.3001H39.5821L52.7142 2.78362H78.7102C88.2206 2.78362 97.8114 9.24096 97.8114 23.6769C97.8114 35.1027 86.5975 40.6861 86.4768 40.7347L86.4634 40.7185Z" fill="white"/>
</svg>
