<svg width="173" height="142" viewBox="0 0 173 142" fill="none" xmlns="http://www.w3.org/2000/svg">
<path d="M173 41.2399C173 12.9192 153.809 0 135.987 0H88.0664L62.9576 101.182H103.498L102.361 108.713H55.4157L82.1721 0.0282079H34.6928L0 141.18H126.449C150.954 141.18 165.597 121.209 165.597 101.915C165.597 87.247 158.241 77.8538 154.041 73.679C160.167 69.7581 173 59.3494 173 41.2681V41.2399ZM149.423 70.971L145.71 72.7764L149.144 75.2586C149.26 75.3433 161.629 84.5108 161.629 101.859C161.629 119.207 148.471 136.301 126.449 136.301H5.33736L37.64 4.85176H76.8347L50.1247 113.565H105.703L108.279 96.3863H68.3182L91.0367 4.85176H136.01C152.463 4.85176 169.055 16.1067 169.055 41.2681C169.055 61.1829 149.655 70.9146 149.446 70.9993L149.423 70.971Z" fill="white"/>
</svg>
