<svg width="317" height="55" viewBox="0 0 317 55" fill="none" xmlns="http://www.w3.org/2000/svg">
<path d="M117.088 0.723022H101.495L85.7373 52.8777H116.401L120.187 40.3597H105.117L117.088 0.723022ZM137.712 0.723022L121.955 52.8777H137.549L153.317 0.723022H137.723H137.712ZM317 32.2446H295.066L292.033 0.723022H274.115L239.534 47.6115L232.769 31.4676C232.769 31.4676 250.97 30.6799 250.97 11.2662C250.97 2.77338 245.23 0.723022 236.097 0.723022H210.355L194.598 52.8777H210.497L216.149 35.3849L223.777 52.8777H253.72L259.82 44.6115H278.534L279.266 52.8777H297.042L296.245 44.6115H316.989V32.2446H317ZM222.784 23.1475C221.191 23.1475 219.947 23.223 219.947 23.223L223.199 12.1187H226.254C228.567 12.1187 233.936 12.4424 233.936 15.8417C233.936 20.018 229.735 23.1583 222.784 23.1583V23.1475ZM268.953 32.2446L276.527 21.9712L277.443 32.2446H268.953ZM189.513 26.018C189.513 26.018 198.493 21.9712 198.493 10.9964C198.493 7.59712 195.012 0.71223 185.89 0.71223H161.217L145.427 52.8669H173.002C185.89 52.8669 194.587 44.0719 194.587 33.4101C194.587 27.2698 189.513 26.0072 189.513 26.0072V26.018ZM170.482 43.0791C167.437 43.0791 165.495 43.1331 165.495 43.1331L169.008 31.4029H174.672C177.138 31.4029 179.31 32.6439 179.31 35.5144C179.31 40.8669 173.952 43.0899 170.471 43.0899L170.482 43.0791ZM176.363 21.3885C173.821 21.3885 172.206 21.4317 172.206 21.4317L175.141 11.6331H179.877C181.939 11.6331 183.751 12.6691 183.751 15.0647C183.751 19.5324 179.277 21.3885 176.374 21.3885H176.363ZM81.3506 15.777C81.3506 4.94245 72.3262 0 63.9456 0H41.4119L29.6049 38.7086H48.6685L48.1338 41.5899H26.0584L38.6402 0.0107914H16.3138L0 54.0108H59.4607C70.984 54.0108 77.8696 46.3705 77.8696 38.9892C77.8696 33.3777 74.4104 29.7842 72.4353 28.187C75.3161 26.687 81.3506 22.705 81.3506 15.7878V15.777ZM70.2638 27.1511L68.5178 27.8417L70.1328 28.7914C70.1874 28.8237 76.0036 32.3309 76.0036 38.9676C76.0036 45.6043 69.8164 52.1439 59.4607 52.1439H2.50981L17.6996 1.85611H36.1304L23.5704 43.446H49.7052L50.9164 36.8741H32.1256L42.8086 1.85611H63.9565C71.6933 1.85611 79.4955 6.16187 79.4955 15.7878C79.4955 23.4065 70.3729 27.1295 70.2747 27.1619L70.2638 27.1511ZM300.239 8.70863C302.509 8.70863 304.364 6.86331 304.364 4.60791C304.364 2.35252 302.53 0.496403 300.293 0.496403C298.056 0.496403 296.103 2.29856 296.103 4.60791C296.103 6.91727 297.969 8.70863 300.25 8.70863H300.239ZM300.282 1.16547C302.094 1.16547 303.611 2.73022 303.611 4.6187C303.611 6.50719 302.094 8.06115 300.228 8.06115C298.362 8.06115 296.823 6.50719 296.823 4.6187C296.823 2.73022 298.34 1.16547 300.272 1.16547H300.282ZM299.311 5.06115H300.457L301.232 6.97122H302.301L301.417 4.88849C302.018 4.64029 302.301 4.24101 302.301 3.64748C302.301 2.7518 301.647 2.2446 300.501 2.2446H298.296V6.97122H299.311V5.06115ZM299.311 2.98921H300.435C300.948 2.98921 301.254 3.22662 301.254 3.63669C301.254 4.07914 300.948 4.30576 300.359 4.30576H299.311V2.97842V2.98921Z" fill="#E30613"/>
</svg>
