<svg width="128" height="160" viewBox="0 0 128 160" fill="none" xmlns="http://www.w3.org/2000/svg">
<path d="M128 64C128 121.5 64 159.5 64 159.5C64 159.5 0 121.5 0 64C0 28.6538 28.6538 0 64 0C99.3462 0 128 28.6538 128 64Z" fill="#E30613"/>
<path d="M98 52.2344C98 40.399 90.1238 35 82.8095 35H63.1429L52.8381 77.2843H69.4762L69.0095 80.4318H49.7429L60.7238 35.0118H41.2381L27 94H78.8952C88.9524 94 94.9619 85.6539 94.9619 77.5908C94.9619 71.4609 91.9428 67.5355 90.219 65.7908C92.7333 64.1522 98 59.8024 98 52.2462V52.2344ZM88.3238 64.6591L86.8 65.4136L88.2095 66.451C88.2571 66.4863 93.3333 70.3175 93.3333 77.5672C93.3333 84.817 87.9333 91.9606 78.8952 91.9606H29.1905L42.4476 37.0276H58.5333L47.5714 82.4593H70.381L71.4381 75.2803H55.0381L64.3619 37.0276H82.819C89.5714 37.0276 96.3809 41.7311 96.3809 52.2462C96.3809 60.5686 88.419 64.6356 88.3333 64.6709L88.3238 64.6591Z" fill="white"/>
</svg>
