<svg width="24" height="24" viewBox="0 0 24 24" fill="none" xmlns="http://www.w3.org/2000/svg">
<path d="M23.7752 7.13125C23.7177 5.8743 23.5181 5.01602 23.2258 4.26484C22.9237 3.48836 22.5198 2.82977 21.8628 2.17328C21.2058 1.5168 20.5467 1.11297 19.7696 0.811328C19.0178 0.519297 18.1589 0.319844 16.9009 0.262422C15.6404 0.205 15.2379 0.191406 12.0285 0.191406C8.819 0.191406 8.41649 0.205 7.15598 0.262422C5.89804 0.319844 5.03908 0.519297 4.28732 0.811328C3.51023 1.1132 2.85112 1.5168 2.19412 2.17328C1.53712 2.82977 1.13298 3.48836 0.8311 4.26484C0.53884 5.01602 0.339229 5.8743 0.281762 7.13125C0.224296 8.39078 0.210693 8.79297 0.210693 11.9999C0.210693 15.2069 0.224296 15.6091 0.281762 16.8686C0.339229 18.1255 0.53884 18.9838 0.8311 19.735C1.13321 20.5115 1.53712 21.1701 2.19412 21.8266C2.85112 22.483 3.51023 22.8869 4.28732 23.1885C5.03908 23.4805 5.89804 23.68 7.15598 23.7374C8.41649 23.7948 8.819 23.8084 12.0285 23.8084C15.2379 23.8084 15.6404 23.7948 16.9009 23.7374C18.1589 23.68 19.0178 23.4805 19.7696 23.1885C20.5467 22.8866 21.2058 22.483 21.8628 21.8266C22.5198 21.1701 22.9239 20.5115 23.2258 19.735C23.5181 18.9838 23.7177 18.1255 23.7752 16.8686C23.8326 15.6091 23.8462 15.2069 23.8462 11.9999C23.8462 8.79297 23.8326 8.39078 23.7752 7.13125ZM21.648 16.7718C21.5954 17.923 21.4028 18.5484 21.241 18.9646C21.0266 19.5159 20.7705 19.9091 20.3569 20.3223C19.9434 20.7355 19.5496 20.9915 18.9981 21.2057C18.5818 21.3674 17.956 21.5598 16.8036 21.6123C15.5576 21.6691 15.184 21.6812 12.0282 21.6812C8.87247 21.6812 8.49882 21.6693 7.25285 21.6123C6.1007 21.5598 5.47489 21.3674 5.05832 21.2057C4.50663 20.9915 4.11305 20.7355 3.69952 20.3223C3.28599 19.9091 3.02985 19.5156 2.81547 18.9646C2.65362 18.5486 2.46105 17.9233 2.40851 16.7718C2.35174 15.5266 2.33955 15.1532 2.33955 11.9999C2.33955 8.84664 2.35151 8.47328 2.40851 7.22828C2.46105 6.07703 2.65362 5.45172 2.81547 5.03547C3.02985 4.48422 3.28599 4.09094 3.69952 3.67773C4.11305 3.26453 4.50687 3.00859 5.05832 2.79437C5.47466 2.63266 6.10046 2.44023 7.25285 2.38773C8.49906 2.33102 8.87271 2.31883 12.0285 2.31883C15.1842 2.31883 15.5579 2.33078 16.8038 2.38773C17.956 2.44023 18.5818 2.63266 18.9984 2.79437C19.5501 3.00859 19.9436 3.26453 20.3572 3.67773C20.7707 4.09094 21.0268 4.48445 21.2412 5.03547C21.4031 5.45148 21.5956 6.0768 21.6482 7.22828C21.7049 8.47351 21.7171 8.84687 21.7171 12.0002C21.7171 15.1534 21.7052 15.5268 21.6482 16.7718H21.648ZM12.0282 5.93617C8.67662 5.93617 5.95949 8.65117 5.95949 12.0002C5.95949 15.3491 8.67662 18.0641 12.0282 18.0641C15.3798 18.0641 18.097 15.3491 18.097 12.0002C18.097 8.65117 15.3798 5.93617 12.0282 5.93617ZM12.0282 15.9365C9.8527 15.9365 8.08882 14.1742 8.08882 12.0002C8.08882 9.82609 9.85246 8.06383 12.0282 8.06383C14.204 8.06383 15.9676 9.82609 15.9676 12.0002C15.9676 14.1742 14.204 15.9365 12.0282 15.9365ZM18.3367 4.27961C17.5535 4.27961 16.9185 4.91406 16.9185 5.69664C16.9185 6.47922 17.5535 7.11367 18.3367 7.11367C19.1199 7.11367 19.7548 6.47922 19.7548 5.69664C19.7548 4.91406 19.1199 4.27961 18.3367 4.27961Z" fill="white"/>
</svg>
