<svg width="25" height="24" viewBox="0 0 25 24" fill="none" xmlns="http://www.w3.org/2000/svg">
<path d="M12.0829 0C5.45027 0 0.0734863 5.37258 0.0734863 12C0.0734863 17.0838 3.23886 21.4298 7.70626 23.1783C7.60118 22.2288 7.50642 20.7687 7.74802 19.7323C7.96616 18.7957 9.1563 13.7674 9.1563 13.7674C9.1563 13.7674 8.79696 13.0486 8.79696 11.9857C8.79696 10.3172 9.76475 9.07148 10.9699 9.07148C11.9945 9.07148 12.4894 9.84024 12.4894 10.7618C12.4894 11.7914 11.8333 13.3305 11.4946 14.7572C11.2117 15.9516 12.0942 16.9256 13.273 16.9256C15.4075 16.9256 17.0483 14.6768 17.0483 11.4305C17.0483 8.55727 14.982 6.54844 12.032 6.54844C8.61494 6.54844 6.60923 9.10945 6.60923 11.756C6.60923 12.7873 7.00681 13.8933 7.5029 14.4945C7.60095 14.6133 7.61549 14.7173 7.58617 14.8385C7.49492 15.2175 7.29227 16.0327 7.25263 16.1993C7.20032 16.4189 7.07858 16.4655 6.85106 16.3598C5.35106 15.6621 4.41329 13.4709 4.41329 11.711C4.41329 7.92563 7.16584 4.44938 12.3484 4.44938C16.5144 4.44938 19.752 7.41563 19.752 11.3801C19.752 15.3445 17.1423 18.844 13.52 18.844C12.3031 18.844 11.1592 18.2123 10.7675 17.4661C10.7675 17.4661 10.1654 19.7573 10.0192 20.3187C9.74809 21.3609 9.01628 22.6676 8.52652 23.4645C9.65029 23.812 10.8444 23.9995 12.0824 23.9995C18.715 23.9995 24.0918 18.627 24.0918 11.9995C24.0918 5.37211 18.7155 0 12.0829 0Z" fill="white"/>
</svg>
