<svg width="25" height="20" viewBox="0 0 25 20" fill="none" xmlns="http://www.w3.org/2000/svg">
<path d="M7.61012 19.7532C16.6742 19.7532 21.6309 12.2497 21.6309 5.74344C21.6309 5.53016 21.6266 5.31805 21.6168 5.10688C22.579 4.41195 23.4154 3.54477 24.0752 2.55734C23.1921 2.94922 22.2421 3.21336 21.2453 3.33242C22.2625 2.72305 23.0438 1.75836 23.4121 0.60875C22.4598 1.17289 21.4055 1.58305 20.2831 1.80383C19.3838 0.846875 18.1031 0.248047 16.6861 0.248047C13.9646 0.248047 11.7576 2.45328 11.7576 5.17156C11.7576 5.55805 11.801 5.93375 11.8854 6.29422C7.79003 6.08844 4.15836 4.12906 1.7281 1.14969C1.30448 1.87719 1.06078 2.72281 1.06078 3.62445C1.06078 5.33281 1.93076 6.84078 3.25367 7.7232C2.44538 7.69836 1.68587 7.47641 1.02184 7.10726C1.02066 7.12789 1.02067 7.14852 1.02067 7.17008C1.02067 9.55508 2.71957 11.5459 4.97415 11.9975C4.56039 12.11 4.12482 12.1707 3.67517 12.1707C3.35781 12.1707 3.0489 12.1393 2.7489 12.0819C3.37611 14.0382 5.19534 15.4618 7.35234 15.5019C5.6654 16.8226 3.54077 17.6096 1.23201 17.6096C0.83443 17.6096 0.442245 17.5869 0.0563965 17.5414C2.23732 18.9378 4.82685 19.7532 7.61012 19.7532Z" fill="white"/>
</svg>
