<svg width="23" height="16" viewBox="0 0 23 16" fill="none" xmlns="http://www.w3.org/2000/svg">
<path d="M21.5947 2.67039C21.3416 1.71766 20.5955 0.967422 19.6481 0.712656C17.9311 0.25 11.0461 0.25 11.0461 0.25C11.0461 0.25 4.16114 0.25 2.44417 0.712656C1.49679 0.967422 0.750893 1.71766 0.49757 2.67039C0.0376002 4.39727 0.0375977 8.00008 0.0375977 8.00008C0.0375977 8.00008 0.0376002 11.6029 0.49757 13.3298C0.750893 14.2825 1.49679 15.0327 2.44417 15.2875C4.16114 15.7502 11.0461 15.7502 11.0461 15.7502C11.0461 15.7502 17.9311 15.7502 19.6481 15.2875C20.5955 15.033 21.3414 14.2825 21.5947 13.3298C22.0547 11.6029 22.0547 8.00008 22.0547 8.00008C22.0547 8.00008 22.0547 4.39727 21.5947 2.67039ZM8.79438 11.2712V4.72914L14.5488 8.00031L8.79438 11.2712Z" fill="white"/>
</svg>
